<svg width="1200" height="630" viewBox="0 0 1200 630" fill="none" xmlns="http://www.w3.org/2000/svg">
  <rect width="1200" height="630" fill="#F7F8F5" />
  <rect x="64" y="50" width="1072" height="530" rx="52" fill="#111513" />
  <circle cx="600" cy="315" r="258" fill="#B8F2D0" opacity="0.08" />
  <circle cx="600" cy="315" r="184" fill="#F4C95D" opacity="0.08" />
  <path d="M298 438C366 332 421 372 480 270C542 163 616 171 678 252C751 349 806 292 879 197" stroke="#B8F2D0"
    stroke-width="4" stroke-linecap="round" opacity="0.76" />
  <g transform="translate(460 100)">
    <rect width="270" height="60" rx="30" fill="#F7F8F5" fill-opacity="0.09" stroke="#F7F8F5" stroke-opacity="0.18" />
    <text x="40" y="39" fill="#F7F8F5" font-family="Inter, Arial, sans-serif" font-size="24" font-weight="800"
      letter-spacing="0.08em">OPENDESIGN</text>
  </g>
  <text x="600" y="248" text-anchor="middle" fill="#F7F8F5" font-family="Inter, Arial, sans-serif" font-size="70"
    font-weight="850" letter-spacing="-0.055em">Extract design tokens</text>
  <text x="600" y="326" text-anchor="middle" fill="#F7F8F5" font-family="Inter, Arial, sans-serif" font-size="70"
    font-weight="850" letter-spacing="-0.055em">from any website</text>
  <text x="600" y="390" text-anchor="middle" fill="#C9D3CB" font-family="Inter, Arial, sans-serif" font-size="30"
    font-weight="500">Generate DESIGN.md files, brand previews,</text>
  <text x="600" y="430" text-anchor="middle" fill="#C9D3CB" font-family="Inter, Arial, sans-serif" font-size="30"
    font-weight="500">and reusable tokens for frontend teams.</text>
  <g transform="translate(480 474)">
    <rect width="240" height="62" rx="31" fill="#F7F8F5" fill-opacity="0.1" stroke="#F7F8F5" stroke-opacity="0.16" />
    <circle cx="62" cy="31" r="15" fill="#B8F2D0" />
    <circle cx="100" cy="31" r="15" fill="#F4C95D" />
    <circle cx="138" cy="31" r="15" fill="#D97B66" />
    <circle cx="176" cy="31" r="15" fill="#F7F8F5" />
  </g>
</svg>